# xmcd
#
# Track frame offsets: 
#        150
#        16452
#        31016
#        44769
#        55374
#        69236
#        80276
#        95199
#        108050
#        120339
#        130581
#        142753
#        156994
#        169680
#        183909
#        198365
#        209828
#        223356
#        235422
#        245135
#
# Disc length: 3432 seconds
#
# Revision: 0
# Processed by: cddbd v1.5.2PL0 Copyright (c) Steve Scherf et al.
# Submitted via: ExactAudioCopy v0.99pb4
#
DISCID=1f0d6614
DTITLE=Frank Sinatra - Frank Sinatra Collection Disc 3
DYEAR=2007
DGENRE=Vocal
TTITLE0=We Kiss In A Shadow
TTITLE1=Faithful
TTITLE2=You're The One
TTITLE3=Cherry Pies Ought To Be You
TTITLE4=Love Means Love
TTITLE5=I Am Loved
TTITLE6=Take My Love
TTITLE7=You Don't Remind Me
TTITLE8=April In Paris
TTITLE9=Come Back To Sorrento (Torna A Surriento)
TTITLE10=I Guess I'll Have To Dream The Rest
TTITLE11=Nevertheless
TTITLE12=If Only She'd Looked My Way
TTITLE13=London By Night
TTITLE14=Meet Me At The Copa
TTITLE15=Remember Me In Your Dreams
TTITLE16=Accidents Will Happen
TTITLE17=One Finger Melody
TTITLE18=Life Is So Peculiar
TTITLE19=Dear Little Boy Of Mine
EXTD=
EXTT0=
EXTT1=
EXTT2=
EXTT3=
EXTT4=
EXTT5=
EXTT6=
EXTT7=
EXTT8=
EXTT9=
EXTT10=
EXTT11=
EXTT12=
EXTT13=
EXTT14=
EXTT15=
EXTT16=
EXTT17=
EXTT18=
EXTT19=
PLAYORDER=
